<svg xmlns="http://www.w3.org/2000/svg" viewBox="0 0 56.36 56.41"><defs><style>.cls-1{fill:#58448b;}.cls-2{fill:#fff;}</style></defs><title>Ресурс 1</title><g id="Слой_2" data-name="Слой 2"><g id="Слой_1-2" data-name="Слой 1"><path class="cls-1" d="M56.36,28.2A28.18,28.18,0,1,1,48.11,8.26,28.23,28.23,0,0,1,56.36,28.2Z"/><path class="cls-2" d="M22.31,42.26,21,41.82a11.84,11.84,0,0,1-2.33-1,12.13,12.13,0,0,1-2-1.53,7.86,7.86,0,0,1-2.11-3.13,11.92,11.92,0,0,1-.34-2.31,45.53,45.53,0,0,1,.74-12.6l1.95-9.69a1.82,1.82,0,0,0-.12-.95,1.85,1.85,0,0,0-.59-.74,1.77,1.77,0,0,0-1.83-.15A10.06,10.06,0,0,0,9.43,15a10.33,10.33,0,0,0-.52,1.72C7.69,21,5,32.27,8.35,38.41l.07.12A14.37,14.37,0,0,0,12.14,44a17.48,17.48,0,0,0,3.2,2.42A18.92,18.92,0,0,0,19,48.05l3.07,1a2.37,2.37,0,0,0,3-1.52,4.27,4.27,0,0,0,.19-1.63,4.16,4.16,0,0,0-.45-1.58,4.25,4.25,0,0,0-1-1.29A4,4,0,0,0,22.31,42.26Z"/><path class="cls-2" d="M29.54,4.58c-6.13-.65-9.3,2.24-11,8.7-.12.44-.22.89-.32,1.35-1.59,7.42-2.52,17.84-.8,21.41a6.87,6.87,0,0,0,3.24,3.34l.07,0a1.29,1.29,0,0,0,.58.13,1.22,1.22,0,0,0,1-.56,1.26,1.26,0,0,0,.2-.56l.53-5.21a2.38,2.38,0,0,1,2.15-2.11l.53,0a1.66,1.66,0,0,1,.7.1,1.48,1.48,0,0,1,.61.37,1.7,1.7,0,0,1,.41.58,1.68,1.68,0,0,1,.13.7l-.22,11.59a1.62,1.62,0,0,0,.17.75,1.72,1.72,0,0,0,.47.6,1.79,1.79,0,0,0,.7.32,1.63,1.63,0,0,0,.76,0l.34-.08a5.39,5.39,0,0,0,4-5l.5-18.22.18-7C34.27,10.73,33.25,5,29.54,4.58ZM29,11l-.87,11.52A4.13,4.13,0,0,1,24,26.27a.88.88,0,0,1-.57-.17.89.89,0,0,1-.35-.48.77.77,0,0,1,0-.34l0-.22c.41-13.23,2.54-14.35,2.54-14.35a2.52,2.52,0,0,1,.77-.72,2.57,2.57,0,0,1,1-.33,1.3,1.3,0,0,1,.59,0,1.4,1.4,0,0,1,.52.29,1.38,1.38,0,0,1,.35.48A1.48,1.48,0,0,1,29,11"/><path class="cls-2" d="M47.68,28.17c-.5-.25-.92-.47-1.27-.68a2.18,2.18,0,0,1-.95-1.16,2.15,2.15,0,0,1,.06-1.5c.6-1.43,1.09-2.68,1.35-3.38a4.19,4.19,0,0,0,.28-1.26C47.69,11.6,40.85,7.64,38,7.91S35.3,12,35.3,12c.41,1.47-.11,25.93-.15,30.48s1.93,5.07,1.93,5.07c5.56,1.62,9.08-5.75,11.11-9.78s1.81-8.49-.51-9.62ZM40.07,12.79c4.53.73,3.11,6.22,2.28,8.36S39.79,23.71,39.24,23s-.86-9.71-.86-9.71c0-1,1.69-.47,1.69-.47Zm1.78,28.06c-2.44,1.57-2.09-.28-2.09-.28l-.17-9.39c0-.51.51-2.71,3.29-.28S44.28,39.28,41.85,40.85Z"/></g></g></svg>